<?xml version="1.0" encoding="UTF-8"?>
<svg viewBox="0 0 340.02 73.34" xmlns="http://www.w3.org/2000/svg">
<defs>
</defs>
<title>NCEI_logo</title>
<g data-name="NOAA Logo">
<circle fill="#fff" cx="36.5" cy="36.69" r="36.5"/>
<path fill="#007ec6" transform="translate(-2.07 -1.59)" d="M71.4,22.29c.07,0,4.52,8.86,3.7,18.28h0C74.67,56.4,60.68,74.35,39.84,74.93l-2.91-.06C15.45,73.81,2,55.59,2.08,39.12h0A36.19,36.19,0,0,1,3.44,28.35L5,28.78c5.51,2.08,11.44,18.17,30.75,19.08.84,0,2.45.08,2.44.08-1.25,1.25-8.36,4.18-11.58,5,.84-.2-.07,0,0,0h0c7.77,4.81,15.53-4.45,25.61-5.81l3.09-.18c-.59-1.86-3.25-1.7-3.5-1.68-7,.69-5.23-.11-5.45,0C57,41.82,63.23,33.23,70.94,22.79Z" data-name="bottom semi circle"/>
<path fill="#263f78" transform="translate(-2.07 -1.59)" d="M55.77,5.92a35.13,35.13,0,0,0-16.7-4.33C18.14,1.67,8.89,17,8.89,17c4.63,2.27,9.46,9.11,9.53,9.21C23.61,33.51,30.83,44.79,40.2,45c3,.07,5-1.72,7.27-3.93,8.31-8,9.44-22.91,20.09-25A34.37,34.37,0,0,0,55.77,5.92Z" data-name="top semi circle"/>
<path fill="#fff" transform="translate(-2.07 -1.59)" d="M48.13,16a1.81,1.81,0,0,0-1.81,1.81v7.8h2.06V21.7h2v3.86h2.06v-7.8A1.81,1.81,0,0,0,50.62,16Z" data-name="A 2"/>
<path fill="#263f78" transform="translate(-2.07 -1.59)" d="M48.79,17.6H50a.42.42,0,0,1,.42.42v2h-2V18A.42.42,0,0,1,48.79,17.6Z" data-name="A hole 2"/>
<path fill="#fff" transform="translate(-2.07 -1.59)" d="M40.26,16a1.81,1.81,0,0,0-1.81,1.81v7.8h2.06V21.7h2v3.86h2.06v-7.8A1.81,1.81,0,0,0,42.75,16Z" data-name="A 1"/>
<path fill="#263f78" transform="translate(-2.07 -1.59)" d="M40.93,17.6h1.16a.42.42,0,0,1,.42.42v2h-2V18A.42.42,0,0,1,40.93,17.6Z" data-name="A hole 1"/>
<rect fill="#fff" x="28.51" y="14.35" width="6.11" height="9.61" rx="1.81" ry="1.81"/>
<rect fill="#263f78" x="30.56" y="16" width="2" height="6.31" rx=".42" ry=".42" data-name="O hole"/>
<path fill="#fff" transform="translate(-2.07 -1.59)" d="M22.71,16v9.61h2.06V18a.42.42,0,0,1,.41-.42h1.16a.42.42,0,0,1,.42.42v7.54h2.06v-7.8A1.81,1.81,0,0,0,27,16Z"/>
</g>
<g data-name="Text copy">
<path fill="#fff" transform="translate(-2.07 -1.59)" d="M106.51,24.75h-2.68L98,15l-.44-.73-.42-.71V24.75H94.93V9.42H98l5.37,9,1,1.65V9.42h2.18Z"/>
<path fill="#fff" transform="translate(-2.07 -1.59)" d="M118.86,24.75h-2.44a9.25,9.25,0,0,1-.39-2.29A3.8,3.8,0,0,1,112.19,25a3.75,3.75,0,0,1-2.72-1,3.33,3.33,0,0,1-1-2.5q0-3.91,6.86-3.91H116v-.85q0-1.76-2.4-1.76T111,16.74l-2.18-.33a3.3,3.3,0,0,1,1.46-2.33,6.33,6.33,0,0,1,3.71-.92,8.62,8.62,0,0,1,2.15.22,3.28,3.28,0,0,1,1.4.74,2.83,2.83,0,0,1,.79,1.13,6.83,6.83,0,0,1,.22,2.07v5.12A8.32,8.32,0,0,0,118.86,24.75ZM116,19q-5,0-5,2.37a1.65,1.65,0,0,0,.5,1.21,2.05,2.05,0,0,0,1.51.5,2.67,2.67,0,0,0,2.21-.93A3.27,3.27,0,0,0,116,20Z"/>
<path fill="#fff" transform="translate(-2.07 -1.59)" d="M126.27,22.75v2a9.07,9.07,0,0,1-1.77.25,3.61,3.61,0,0,1-1.77-.41,2.5,2.5,0,0,1-1.08-1.12,5.32,5.32,0,0,1-.34-2.2V15.4h-1.42v-2h1.56l.24-3,2.1-.19v3.14h2.28v2h-2.28v5.54a2.07,2.07,0,0,0,.39,1.45,2.08,2.08,0,0,0,1.47.39Z"/>
<path fill="#fff" transform="translate(-2.07 -1.59)" d="M130.4,12.08h-2.56V9.42h2.56Zm0,12.67h-2.56V13.41h2.56Z"/>
<path fill="#fff" transform="translate(-2.07 -1.59)" d="M137.34,25a4.47,4.47,0,0,1-3.84-1.81A6.83,6.83,0,0,1,132.18,19a6.13,6.13,0,0,1,1.47-4.19,4.89,4.89,0,0,1,3.87-1.67,4.82,4.82,0,0,1,3.75,1.63A6.09,6.09,0,0,1,142.72,19a6.08,6.08,0,0,1-1.52,4.32A5,5,0,0,1,137.34,25Zm.09-2.11Q140,22.87,140,19a5.23,5.23,0,0,0-.62-2.75,2.07,2.07,0,0,0-1.9-1,2.15,2.15,0,0,0-2,1,5.21,5.21,0,0,0-.64,2.76,4.94,4.94,0,0,0,.68,2.83A2.15,2.15,0,0,0,137.43,22.87Z"/>
<path fill="#fff" transform="translate(-2.07 -1.59)" d="M153.88,24.75h-2.56V17.66a2.44,2.44,0,0,0-.52-1.69,1.63,1.63,0,0,0-1.25-.57,2.25,2.25,0,0,0-1.75.88,4,4,0,0,0-.75,2.64v5.83h-2.56V13.41h2.34V16q1.22-2.86,3.44-2.86a3.71,3.71,0,0,1,2.56.94,4.28,4.28,0,0,1,1.06,3.31Z"/>
<path fill="#fff" transform="translate(-2.07 -1.59)" d="M166.08,24.75h-2.44a9.25,9.25,0,0,1-.39-2.29A3.8,3.8,0,0,1,159.41,25a3.75,3.75,0,0,1-2.72-1,3.33,3.33,0,0,1-1-2.5q0-3.91,6.86-3.91h.73v-.85q0-1.76-2.4-1.76t-2.65,1.76L156,16.42a3.3,3.3,0,0,1,1.46-2.33,6.33,6.33,0,0,1,3.71-.92,8.62,8.62,0,0,1,2.15.22,3.28,3.28,0,0,1,1.4.74,2.83,2.83,0,0,1,.79,1.13,6.83,6.83,0,0,1,.22,2.07v5.12A8.32,8.32,0,0,0,166.08,24.75ZM163.25,19q-5,0-5,2.37a1.65,1.65,0,0,0,.5,1.21,2.05,2.05,0,0,0,1.51.5,2.67,2.67,0,0,0,2.21-.93,3.27,3.27,0,0,0,.75-2.11Z"/>
<path fill="#fff" transform="translate(-2.07 -1.59)" d="M170.44,24.75h-2.56V9.42h2.56Z"/>
<path fill="#fff" transform="translate(-2.07 -1.59)" d="M187.66,19.43l2.56.28a6,6,0,0,1-1.78,3.79,5.54,5.54,0,0,1-4,1.49A5.26,5.26,0,0,1,181,23.93a6.73,6.73,0,0,1-2-2.86,10.83,10.83,0,0,1-.71-4,9.19,9.19,0,0,1,1.66-5.7,5.85,5.85,0,0,1,8.37-.79,6.62,6.62,0,0,1,1.91,4l-2.56.27q-.71-3.47-3.12-3.47a2.67,2.67,0,0,0-2.41,1.44,8.27,8.27,0,0,0-.86,4.18,7.79,7.79,0,0,0,.92,4.21,2.79,2.79,0,0,0,2.44,1.42,2.67,2.67,0,0,0,2.07-1A3.81,3.81,0,0,0,187.66,19.43Z"/>
<path fill="#fff" transform="translate(-2.07 -1.59)" d="M198.89,21.13l2.31.31A4.84,4.84,0,0,1,199.46,24a5.21,5.21,0,0,1-3.27,1,4.88,4.88,0,0,1-3.8-1.58A6.14,6.14,0,0,1,191,19.11a6.29,6.29,0,0,1,1.45-4.26,4.91,4.91,0,0,1,3.93-1.68,4.52,4.52,0,0,1,3.75,1.66,6.64,6.64,0,0,1,1.32,4.27v.29h-7.78a6.35,6.35,0,0,0,.22,1.85,2.49,2.49,0,0,0,.87,1.21,2.74,2.74,0,0,0,4.19-1.33Zm-.16-3.39a2.85,2.85,0,0,0-.74-2,2.48,2.48,0,0,0-3.55-.05,3.27,3.27,0,0,0-.83,2Z"/>
<path fill="#fff" transform="translate(-2.07 -1.59)" d="M212.56,24.75H210V17.66a2.43,2.43,0,0,0-.52-1.69,1.62,1.62,0,0,0-1.25-.57,2.25,2.25,0,0,0-1.75.88,4,4,0,0,0-.75,2.64v5.83h-2.56V13.41h2.34V16q1.22-2.86,3.44-2.86a3.72,3.72,0,0,1,2.56.94,4.28,4.28,0,0,1,1.06,3.31Z"/>
<path fill="#fff" transform="translate(-2.07 -1.59)" d="M220.31,22.75v2a9.07,9.07,0,0,1-1.78.25,3.61,3.61,0,0,1-1.77-.41,2.51,2.51,0,0,1-1.08-1.12,5.32,5.32,0,0,1-.34-2.2V15.4h-1.42v-2h1.56l.24-3,2.1-.19v3.14h2.28v2h-2.28v5.54a2.07,2.07,0,0,0,.39,1.45,2.08,2.08,0,0,0,1.47.39Z"/>
<path fill="#fff" transform="translate(-2.07 -1.59)" d="M228.77,21.13l2.31.31A4.84,4.84,0,0,1,229.33,24a5.21,5.21,0,0,1-3.27,1,4.88,4.88,0,0,1-3.8-1.58,6.14,6.14,0,0,1-1.44-4.29,6.29,6.29,0,0,1,1.45-4.26,4.91,4.91,0,0,1,3.93-1.68A4.52,4.52,0,0,1,230,14.83a6.64,6.64,0,0,1,1.32,4.27v.29H223.5a6.35,6.35,0,0,0,.22,1.85,2.49,2.49,0,0,0,.87,1.21,2.74,2.74,0,0,0,4.19-1.33Zm-.16-3.39a2.85,2.85,0,0,0-.74-2,2.48,2.48,0,0,0-3.55-.05,3.27,3.27,0,0,0-.83,2Z"/>
<path fill="#fff" transform="translate(-2.07 -1.59)" d="M235.61,24.75H233V13.41h2.31v2.71a4.84,4.84,0,0,1,1.36-2.31,2.73,2.73,0,0,1,1.77-.73h.34v2.75a2.62,2.62,0,0,0-2.59,1.25,5.31,5.31,0,0,0-.63,2.41Z"/>
<path fill="#fff" transform="translate(-2.07 -1.59)" d="M239,22.14l2.4-.46a2.32,2.32,0,0,0,2.43,1.38q2.38,0,2.38-1.4a.9.9,0,0,0-.37-.74,2,2,0,0,0-.87-.39l-2.07-.39q-3.44-.66-3.44-3.36a3.41,3.41,0,0,1,1.09-2.55,4.51,4.51,0,0,1,3.25-1.05q3.59,0,4.39,2.64l-2.28.46q-.36-1.28-2-1.28-2,0-2,1.28,0,.89,1.65,1.22l2.44.51a3.09,3.09,0,0,1,2.84,3.26,3.09,3.09,0,0,1-1.46,2.8,6.34,6.34,0,0,1-3.47.93,6.52,6.52,0,0,1-3.08-.7A3.35,3.35,0,0,1,239,22.14Z"/>
<path fill="#fff" transform="translate(-2.07 -1.59)" d="M258.29,24.75h-2.47V15.4h-1.68v-2h1.68v-.56a4.15,4.15,0,0,1,.81-2.67q.81-1,3.27-1l.91,0v2l-.66,0a2.53,2.53,0,0,0-1.33.25,1,1,0,0,0-.45.59,8.33,8.33,0,0,0-.07,1.4h2.52v2h-2.52Z"/>
<path fill="#fff" transform="translate(-2.07 -1.59)" d="M266.33,25a4.47,4.47,0,0,1-3.84-1.81A6.83,6.83,0,0,1,261.16,19a6.13,6.13,0,0,1,1.47-4.19,4.89,4.89,0,0,1,3.87-1.67,4.82,4.82,0,0,1,3.75,1.63A6.09,6.09,0,0,1,271.71,19a6.08,6.08,0,0,1-1.52,4.32A5,5,0,0,1,266.33,25Zm.09-2.11Q269,22.87,269,19a5.22,5.22,0,0,0-.62-2.75,2.07,2.07,0,0,0-1.9-1,2.15,2.15,0,0,0-2,1,5.22,5.22,0,0,0-.64,2.76,4.94,4.94,0,0,0,.68,2.83A2.15,2.15,0,0,0,266.42,22.87Z"/>
<path fill="#fff" transform="translate(-2.07 -1.59)" d="M276,24.75h-2.56V13.41h2.31v2.71a4.84,4.84,0,0,1,1.36-2.31,2.73,2.73,0,0,1,1.77-.73h.34v2.75a2.62,2.62,0,0,0-2.59,1.25,5.31,5.31,0,0,0-.63,2.41Z"/>
<path fill="#fff" transform="translate(-2.07 -1.59)" d="M104.9,44.75h-10V29.42h9.86V31.7H97.7v4.16h5.71v2.22H97.7v4.29h7.2Z"/>
<path fill="#fff" transform="translate(-2.07 -1.59)" d="M115.94,44.75h-2.56V37.66a2.44,2.44,0,0,0-.52-1.69,1.63,1.63,0,0,0-1.25-.57,2.25,2.25,0,0,0-1.75.88,4,4,0,0,0-.75,2.64v5.83h-2.56V33.41h2.34V36q1.22-2.86,3.44-2.86a3.71,3.71,0,0,1,2.56.94,4.28,4.28,0,0,1,1.06,3.31Z"/>
<path fill="#fff" transform="translate(-2.07 -1.59)" d="m127 33.41l-3.85 11.34h-2.12l-3.94-11.34h2.67l2.65 7.69 2.59-7.69z"/>
<path fill="#fff" transform="translate(-2.07 -1.59)" d="M131.54,32.08H129V29.42h2.56Zm0,12.67H129V33.41h2.56Z"/>
<path fill="#fff" transform="translate(-2.07 -1.59)" d="M136.61,44.75H134V33.41h2.31v2.71a4.83,4.83,0,0,1,1.36-2.31,2.74,2.74,0,0,1,1.77-.73h.34v2.75a2.62,2.62,0,0,0-2.59,1.25,5.31,5.31,0,0,0-.63,2.41Z"/>
<path fill="#fff" transform="translate(-2.07 -1.59)" d="M145.47,45a4.47,4.47,0,0,1-3.84-1.81A6.83,6.83,0,0,1,140.3,39a6.13,6.13,0,0,1,1.47-4.19,4.89,4.89,0,0,1,3.87-1.67,4.82,4.82,0,0,1,3.75,1.63A6.09,6.09,0,0,1,150.85,39a6.08,6.08,0,0,1-1.52,4.32A5,5,0,0,1,145.47,45Zm.09-2.11q2.58,0,2.58-3.85a5.23,5.23,0,0,0-.62-2.75,2.07,2.07,0,0,0-1.9-1,2.15,2.15,0,0,0-2,1,5.21,5.21,0,0,0-.64,2.76,4.94,4.94,0,0,0,.68,2.83A2.15,2.15,0,0,0,145.56,42.88Z"/>
<path fill="#fff" transform="translate(-2.07 -1.59)" d="M162,44.75h-2.56V37.66a2.44,2.44,0,0,0-.52-1.69,1.63,1.63,0,0,0-1.25-.57,2.25,2.25,0,0,0-1.75.88,4,4,0,0,0-.75,2.64v5.83h-2.56V33.41H155V36q1.22-2.86,3.44-2.86a3.71,3.71,0,0,1,2.56.94A4.28,4.28,0,0,1,162,37.43Z"/>
<path fill="#fff" transform="translate(-2.07 -1.59)" d="M180.58,44.75H177.9V37.69q0-2.2-2-2.2a2.22,2.22,0,0,0-1.81.83,3.86,3.86,0,0,0-.68,2.48v6h-2.72V37.69q0-2.23-1.83-2.23a2.35,2.35,0,0,0-1.87.9,3.67,3.67,0,0,0-.76,2.45v6h-2.64V33.41h2.48v2.41a4,4,0,0,1,3.78-2.65,3.18,3.18,0,0,1,3.26,2.65,4.18,4.18,0,0,1,3.79-2.65,3.52,3.52,0,0,1,2.64,1,3.49,3.49,0,0,1,1,2.54Z"/>
<path fill="#fff" transform="translate(-2.07 -1.59)" d="M190.07,41.13l2.31.31A4.84,4.84,0,0,1,190.63,44a5.22,5.22,0,0,1-3.27,1,4.88,4.88,0,0,1-3.8-1.58,6.14,6.14,0,0,1-1.44-4.29,6.29,6.29,0,0,1,1.45-4.26,4.91,4.91,0,0,1,3.93-1.68,4.52,4.52,0,0,1,3.75,1.66,6.64,6.64,0,0,1,1.32,4.27v.29h-7.78a6.35,6.35,0,0,0,.22,1.85,2.49,2.49,0,0,0,.87,1.21,2.74,2.74,0,0,0,4.19-1.33Zm-.16-3.39a2.85,2.85,0,0,0-.74-2,2.48,2.48,0,0,0-3.55-.05,3.27,3.27,0,0,0-.83,2Z"/>
<path fill="#fff" transform="translate(-2.07 -1.59)" d="M202.79,44.75h-2.56V37.66a2.43,2.43,0,0,0-.52-1.69,1.62,1.62,0,0,0-1.25-.57,2.25,2.25,0,0,0-1.75.88,4,4,0,0,0-.75,2.64v5.83H193.4V33.41h2.34V36q1.22-2.86,3.44-2.86a3.72,3.72,0,0,1,2.56.94,4.28,4.28,0,0,1,1.06,3.31Z"/>
<path fill="#fff" transform="translate(-2.07 -1.59)" d="M210.54,42.75v2a9,9,0,0,1-1.78.25,3.61,3.61,0,0,1-1.77-.41,2.51,2.51,0,0,1-1.08-1.12,5.32,5.32,0,0,1-.34-2.2V35.4h-1.42v-2h1.56l.24-3,2.1-.19v3.14h2.28v2H208v5.54a2.07,2.07,0,0,0,.39,1.45,2.08,2.08,0,0,0,1.47.39Z"/>
<path fill="#fff" transform="translate(-2.07 -1.59)" d="M221.82,44.75h-2.44a9.27,9.27,0,0,1-.39-2.29A3.8,3.8,0,0,1,215.15,45a3.75,3.75,0,0,1-2.72-1,3.33,3.33,0,0,1-1-2.5q0-3.91,6.86-3.91H219v-.85q0-1.76-2.4-1.76t-2.65,1.76l-2.18-.33a3.3,3.3,0,0,1,1.46-2.33,6.33,6.33,0,0,1,3.71-.92,8.62,8.62,0,0,1,2.14.22,3.29,3.29,0,0,1,1.4.74,2.84,2.84,0,0,1,.79,1.13,6.83,6.83,0,0,1,.22,2.07v5.12A8.32,8.32,0,0,0,221.82,44.75ZM219,39q-5,0-5,2.37a1.65,1.65,0,0,0,.5,1.21,2.05,2.05,0,0,0,1.51.5,2.67,2.67,0,0,0,2.21-.93A3.26,3.26,0,0,0,219,40Z"/>
<path fill="#fff" transform="translate(-2.07 -1.59)" d="M226.15,44.75h-2.56V29.42h2.56Z"/>
<path fill="#fff" transform="translate(-2.07 -1.59)" d="M238.9,44.75h-2.76V29.42h2.76Z"/>
<path fill="#fff" transform="translate(-2.07 -1.59)" d="M250.94,44.75h-2.56V37.66a2.43,2.43,0,0,0-.52-1.69,1.62,1.62,0,0,0-1.25-.57,2.25,2.25,0,0,0-1.75.88,4,4,0,0,0-.75,2.64v5.83h-2.56V33.41h2.34V36q1.22-2.86,3.44-2.86a3.72,3.72,0,0,1,2.56.94,4.28,4.28,0,0,1,1.06,3.31Z"/>
<path fill="#fff" transform="translate(-2.07 -1.59)" d="M256.29,44.75h-2.47V35.4h-1.68v-2h1.68v-.56a4.15,4.15,0,0,1,.81-2.67q.81-1,3.27-1l.91,0v2l-.66,0a2.53,2.53,0,0,0-1.33.25,1,1,0,0,0-.45.59,8.33,8.33,0,0,0-.07,1.4h2.52v2h-2.52Z"/>
<path fill="#fff" transform="translate(-2.07 -1.59)" d="M264.58,45a4.47,4.47,0,0,1-3.84-1.81A6.83,6.83,0,0,1,259.42,39a6.13,6.13,0,0,1,1.47-4.19,4.89,4.89,0,0,1,3.87-1.67,4.82,4.82,0,0,1,3.75,1.63A6.09,6.09,0,0,1,270,39a6.08,6.08,0,0,1-1.52,4.32A5,5,0,0,1,264.58,45Zm.09-2.11q2.58,0,2.58-3.85a5.22,5.22,0,0,0-.62-2.75,2.07,2.07,0,0,0-1.9-1,2.15,2.15,0,0,0-2,1,5.22,5.22,0,0,0-.64,2.76,4.94,4.94,0,0,0,.68,2.83A2.15,2.15,0,0,0,264.67,42.88Z"/>
<path fill="#fff" transform="translate(-2.07 -1.59)" d="M274.3,44.75h-2.56V33.41H274v2.71a4.84,4.84,0,0,1,1.36-2.31,2.73,2.73,0,0,1,1.77-.73h.34v2.75a2.62,2.62,0,0,0-2.59,1.25,5.31,5.31,0,0,0-.63,2.41Z"/>
<path fill="#fff" transform="translate(-2.07 -1.59)" d="M295.72,44.75H293V37.69q0-2.2-2-2.2a2.22,2.22,0,0,0-1.81.83,3.86,3.86,0,0,0-.68,2.48v6h-2.72V37.69q0-2.23-1.83-2.23a2.35,2.35,0,0,0-1.87.9,3.67,3.67,0,0,0-.76,2.45v6h-2.64V33.41h2.48v2.41A4,4,0,0,1,285,33.17a3.18,3.18,0,0,1,3.26,2.65,4.18,4.18,0,0,1,3.79-2.65,3.52,3.52,0,0,1,2.64,1,3.49,3.49,0,0,1,1,2.54Z"/>
<path fill="#fff" transform="translate(-2.07 -1.59)" d="M306.73,44.75h-2.44a9.27,9.27,0,0,1-.39-2.29A3.8,3.8,0,0,1,300.06,45a3.75,3.75,0,0,1-2.72-1,3.33,3.33,0,0,1-1-2.5q0-3.91,6.86-3.91h.73v-.85q0-1.76-2.4-1.76t-2.65,1.76l-2.18-.33a3.3,3.3,0,0,1,1.46-2.33,6.33,6.33,0,0,1,3.71-.92,8.62,8.62,0,0,1,2.14.22,3.29,3.29,0,0,1,1.4.74,2.84,2.84,0,0,1,.79,1.13,6.83,6.83,0,0,1,.22,2.07v5.12A8.32,8.32,0,0,0,306.73,44.75ZM303.9,39q-5,0-5,2.37a1.65,1.65,0,0,0,.5,1.21,2.05,2.05,0,0,0,1.51.5,2.67,2.67,0,0,0,2.21-.93A3.26,3.26,0,0,0,303.9,40Z"/>
<path fill="#fff" transform="translate(-2.07 -1.59)" d="M314.14,42.75v2a9,9,0,0,1-1.78.25,3.61,3.61,0,0,1-1.77-.41,2.51,2.51,0,0,1-1.08-1.12,5.32,5.32,0,0,1-.34-2.2V35.4h-1.42v-2h1.56l.24-3,2.1-.19v3.14h2.28v2h-2.28v5.54a2.07,2.07,0,0,0,.39,1.45,2.08,2.08,0,0,0,1.47.39Z"/>
<path fill="#fff" transform="translate(-2.07 -1.59)" d="M318.27,32.08h-2.56V29.42h2.56Zm0,12.67h-2.56V33.41h2.56Z"/>
<path fill="#fff" transform="translate(-2.07 -1.59)" d="M325.21,45a4.47,4.47,0,0,1-3.84-1.81A6.83,6.83,0,0,1,320,39a6.13,6.13,0,0,1,1.47-4.19,4.89,4.89,0,0,1,3.87-1.67,4.82,4.82,0,0,1,3.75,1.63A6.09,6.09,0,0,1,330.59,39a6.08,6.08,0,0,1-1.52,4.32A5,5,0,0,1,325.21,45Zm.09-2.11q2.58,0,2.58-3.85a5.22,5.22,0,0,0-.62-2.75,2.07,2.07,0,0,0-1.9-1,2.15,2.15,0,0,0-2,1,5.22,5.22,0,0,0-.64,2.76,4.94,4.94,0,0,0,.68,2.83A2.15,2.15,0,0,0,325.3,42.88Z"/>
<path fill="#fff" transform="translate(-2.07 -1.59)" d="M341.75,44.75h-2.56V37.66a2.43,2.43,0,0,0-.52-1.69,1.62,1.62,0,0,0-1.25-.57,2.25,2.25,0,0,0-1.75.88,4,4,0,0,0-.75,2.64v5.83h-2.56V33.41h2.34V36q1.22-2.86,3.44-2.86a3.72,3.72,0,0,1,2.56.94,4.28,4.28,0,0,1,1.06,3.31Z"/>
<path fill="#fff" transform="translate(-2.07 -1.59)" d="M100.27,62.25H99.1L96.57,58l-.19-.32-.18-.31v4.88h-1V55.58h1.33l2.33,3.93.42.72V55.58h.95Z"/>
<path fill="#fff" transform="translate(-2.07 -1.59)" d="M106.94,62.25h-1.28l-.53-1.59h-2.56L102,62.25h-1l2.21-6.67h1.48Zm-2.14-2.55-1-3-1,3Z"/>
<path fill="#fff" transform="translate(-2.07 -1.59)" d="m109.54 62.25h-1.29v-5.63h-1.77v-1h4.83v1h-1.77z"/>
<path fill="#fff" transform="translate(-2.07 -1.59)" d="M113.25,62.25H112V55.58h1.2Z"/>
<path fill="#fff" transform="translate(-2.07 -1.59)" d="M117.14,62.35a2.43,2.43,0,0,1-2.07-1,4,4,0,0,1-.74-2.46,3.77,3.77,0,0,1,.79-2.43,2.53,2.53,0,0,1,2.08-1,2.45,2.45,0,0,1,2.05,1,3.9,3.9,0,0,1,.75,2.45,3.79,3.79,0,0,1-.78,2.49A2.56,2.56,0,0,1,117.14,62.35Zm0-1a1.38,1.38,0,0,0,1.1-.54,3.13,3.13,0,0,0,.45-1.95,3.65,3.65,0,0,0-.37-1.8,1.23,1.23,0,0,0-1.15-.65q-1.54,0-1.54,2.49a3.46,3.46,0,0,0,.39,1.83A1.26,1.26,0,0,0,117.15,61.39Z"/>
<path fill="#fff" transform="translate(-2.07 -1.59)" d="M126.13,62.25H125L122.43,58l-.19-.32-.18-.31v4.88h-1V55.58h1.33l2.33,3.93.42.72V55.58h.95Z"/>
<path fill="#fff" transform="translate(-2.07 -1.59)" d="M132.81,62.25h-1.28L131,60.66h-2.56l-.52,1.59h-1l2.21-6.67h1.48Zm-2.14-2.55-1-3-1,3Z"/>
<path fill="#fff" transform="translate(-2.07 -1.59)" d="m137.68 62.25h-4.1v-6.67h1.26v5.58h2.84z"/>
<path fill="#fff" transform="translate(-2.07 -1.59)" d="M143.32,62.35a2.43,2.43,0,0,1-2.07-1,4,4,0,0,1-.74-2.46,3.77,3.77,0,0,1,.79-2.43,2.53,2.53,0,0,1,2.08-1,2.45,2.45,0,0,1,2.05,1,3.9,3.9,0,0,1,.75,2.45,3.79,3.79,0,0,1-.78,2.49A2.56,2.56,0,0,1,143.32,62.35Zm0-1a1.38,1.38,0,0,0,1.1-.54,3.13,3.13,0,0,0,.45-1.95,3.65,3.65,0,0,0-.37-1.8,1.23,1.23,0,0,0-1.15-.65q-1.54,0-1.54,2.49a3.46,3.46,0,0,0,.39,1.83A1.26,1.26,0,0,0,143.33,61.39Z"/>
<path fill="#fff" transform="translate(-2.07 -1.59)" d="M151,59.94l1.11.12a2.6,2.6,0,0,1-.77,1.65,2.41,2.41,0,0,1-1.75.65,2.29,2.29,0,0,1-1.48-.46,2.92,2.92,0,0,1-.88-1.25,4.72,4.72,0,0,1-.31-1.73,4,4,0,0,1,.72-2.48,2.54,2.54,0,0,1,3.64-.34,2.88,2.88,0,0,1,.83,1.75L151,58q-.31-1.51-1.36-1.51a1.16,1.16,0,0,0-1,.63,3.6,3.6,0,0,0-.37,1.82,3.39,3.39,0,0,0,.4,1.83,1.22,1.22,0,0,0,1.06.62,1.16,1.16,0,0,0,.9-.42A1.66,1.66,0,0,0,151,59.94Z"/>
<path fill="#fff" transform="translate(-2.07 -1.59)" d="m157.45 62.25h-4.33v-6.67h4.29v1h-3.09v1.81h2.48v1h-2.48v1.87h3.13z"/>
<path fill="#fff" transform="translate(-2.07 -1.59)" d="M163.91,62.25h-1.28l-.53-1.59h-2.56L159,62.25h-1l2.21-6.67h1.48Zm-2.14-2.55-1-3-1,3Z"/>
<path fill="#fff" transform="translate(-2.07 -1.59)" d="M169.71,62.25h-1.17L166,58l-.19-.32-.18-.31v4.88h-1V55.58H166l2.33,3.93.42.72V55.58h.95Z"/>
<path fill="#fff" transform="translate(-2.07 -1.59)" d="m172.32 62.25h-1.2v-6.67h1.2z"/>
<path fill="#fff" transform="translate(-2.07 -1.59)" d="M177.5,59.94l1.11.12a2.6,2.6,0,0,1-.77,1.65,2.4,2.4,0,0,1-1.75.65,2.29,2.29,0,0,1-1.48-.46,2.93,2.93,0,0,1-.88-1.25,4.72,4.72,0,0,1-.31-1.73,4,4,0,0,1,.72-2.48,2.54,2.54,0,0,1,3.64-.34,2.88,2.88,0,0,1,.83,1.75L177.5,58q-.31-1.51-1.36-1.51a1.16,1.16,0,0,0-1,.63,3.61,3.61,0,0,0-.37,1.82,3.4,3.4,0,0,0,.4,1.83,1.21,1.21,0,0,0,1.06.62,1.16,1.16,0,0,0,.9-.42A1.66,1.66,0,0,0,177.5,59.94Z"/>
<path fill="#fff" transform="translate(-2.07 -1.59)" d="M187.1,62.25h-1.28l-.53-1.59h-2.56l-.52,1.59h-1l2.21-6.67h1.48ZM185,59.7l-1-3-1,3Z"/>
<path fill="#fff" transform="translate(-2.07 -1.59)" d="M192.9,62.25h-1.17L189.2,58l-.19-.32-.18-.31v4.88h-1V55.58h1.33l2.33,3.93.42.72V55.58h.95Z"/>
<path fill="#fff" transform="translate(-2.07 -1.59)" d="M194.3,62.25V55.58h2.46a2.74,2.74,0,0,1,2.19,1,3.54,3.54,0,0,1,.83,2.38,3.43,3.43,0,0,1-.85,2.37,3.09,3.09,0,0,1-2.43,1Zm1.24-1h1a1.8,1.8,0,0,0,1.37-.61,2.57,2.57,0,0,0,.56-1.8,2.74,2.74,0,0,0-.49-1.65,1.53,1.53,0,0,0-1.3-.68h-1.14Z"/>
<path fill="#fff" transform="translate(-2.07 -1.59)" d="M208.41,62.25h-1.28l-.53-1.59H204l-.52,1.59h-1l2.21-6.67h1.48Zm-2.14-2.55-1-3-1,3Z"/>
<path fill="#fff" transform="translate(-2.07 -1.59)" d="M211,62.25h-1.29V56.62h-1.77v-1h4.83v1H211Z"/>
<path fill="#fff" transform="translate(-2.07 -1.59)" d="M220.05,62.25h-1.23V56.42L217,62.25h-.63l-1.86-5.83v5.83h-1V55.58h1.88l1.4,4.29,1.37-4.29h1.89Z"/>
<path fill="#fff" transform="translate(-2.07 -1.59)" d="M223.94,62.35a2.43,2.43,0,0,1-2.07-1,4,4,0,0,1-.74-2.46,3.76,3.76,0,0,1,.79-2.43,2.53,2.53,0,0,1,2.08-1,2.45,2.45,0,0,1,2.05,1,3.89,3.89,0,0,1,.75,2.45A3.78,3.78,0,0,1,226,61.4,2.56,2.56,0,0,1,223.94,62.35Zm0-1a1.38,1.38,0,0,0,1.1-.54,3.12,3.12,0,0,0,.45-1.95,3.65,3.65,0,0,0-.37-1.8,1.23,1.23,0,0,0-1.15-.65q-1.54,0-1.54,2.49a3.47,3.47,0,0,0,.39,1.83A1.26,1.26,0,0,0,223.95,61.39Z"/>
<path fill="#fff" transform="translate(-2.07 -1.59)" d="M227.25,60.64l1.17-.25q.21,1,1.61,1a1.64,1.64,0,0,0,1-.25.76.76,0,0,0,.34-.63.89.89,0,0,0-.16-.51,1.13,1.13,0,0,0-.67-.36l-1.27-.33a3.12,3.12,0,0,1-1-.39,1.52,1.52,0,0,1-.5-.61,1.93,1.93,0,0,1-.19-.84,1.76,1.76,0,0,1,.66-1.43,2.61,2.61,0,0,1,1.7-.54,3.1,3.1,0,0,1,1.54.38,1.7,1.7,0,0,1,.86,1.06l-1.14.28a1.15,1.15,0,0,0-1.23-.76,1.36,1.36,0,0,0-.86.23.73.73,0,0,0-.29.6q0,.57.93.8l1.13.28a2.32,2.32,0,0,1,1.38.76,1.91,1.91,0,0,1,.35,1.12,1.84,1.84,0,0,1-.74,1.55,3.08,3.08,0,0,1-1.92.56,3.51,3.51,0,0,1-1.74-.42A2,2,0,0,1,227.25,60.64Z"/>
<path fill="#fff" transform="translate(-2.07 -1.59)" d="M234.83,62.25h-1.2V55.58h2.73a2.3,2.3,0,0,1,1.73.59A2,2,0,0,1,238,59a2.19,2.19,0,0,1-1.55.57h-1.67Zm0-3.67h1.42a1.2,1.2,0,0,0,.85-.27,1,1,0,0,0,.29-.73,1,1,0,0,0-.27-.7,1.31,1.31,0,0,0-1-.29h-1.31Z"/>
<path fill="#fff" transform="translate(-2.07 -1.59)" d="m244.45 62.25h-1.2v-2.9h-2.54v2.9h-1.2v-6.67h1.2v2.74h2.54v-2.74h1.2z"/>
<path fill="#fff" transform="translate(-2.07 -1.59)" d="m250.2 62.25h-4.33v-6.67h4.29v1h-3.09v1.81h2.48v1h-2.48v1.87h3.13z"/>
<path fill="#fff" transform="translate(-2.07 -1.59)" d="M256.41,62.25h-1.27l-1-2.74h-1.69v2.74h-1.2V55.58h2.89a2.49,2.49,0,0,1,1.77.54,1.87,1.87,0,0,1,.57,1.41,1.76,1.76,0,0,1-1.2,1.77Zm-4-3.7h1.49a1.45,1.45,0,0,0,1-.27.94.94,0,0,0,.32-.75.9.9,0,0,0-.31-.71,1.3,1.3,0,0,0-.87-.27h-1.59Z"/>
<path fill="#fff" transform="translate(-2.07 -1.59)" d="m258.78 62.25h-1.2v-6.67h1.2z"/>
<path fill="#fff" transform="translate(-2.07 -1.59)" d="M264,59.94l1.11.12a2.6,2.6,0,0,1-.77,1.65,2.4,2.4,0,0,1-1.75.65,2.29,2.29,0,0,1-1.48-.46,2.93,2.93,0,0,1-.88-1.25,4.72,4.72,0,0,1-.31-1.73,4,4,0,0,1,.72-2.48,2.54,2.54,0,0,1,3.64-.34,2.88,2.88,0,0,1,.83,1.75L264,58q-.31-1.51-1.36-1.51a1.16,1.16,0,0,0-1,.63,3.61,3.61,0,0,0-.37,1.82,3.4,3.4,0,0,0,.4,1.83,1.21,1.21,0,0,0,1.06.62,1.16,1.16,0,0,0,.9-.42A1.66,1.66,0,0,0,264,59.94Z"/>
<path fill="#fff" transform="translate(-2.07 -1.59)" d="M273.55,62.25h-1.28l-.53-1.59h-2.56l-.52,1.59h-1l2.21-6.67h1.48Zm-2.14-2.55-1-3-1,3Z"/>
<path fill="#fff" transform="translate(-2.07 -1.59)" d="M274.31,62.25V55.58h2.46a2.74,2.74,0,0,1,2.19,1,3.54,3.54,0,0,1,.83,2.38,3.43,3.43,0,0,1-.85,2.37,3.09,3.09,0,0,1-2.43,1Zm1.24-1h1a1.8,1.8,0,0,0,1.37-.61,2.57,2.57,0,0,0,.56-1.8,2.74,2.74,0,0,0-.49-1.65,1.53,1.53,0,0,0-1.3-.68h-1.14Z"/>
<path fill="#fff" transform="translate(-2.07 -1.59)" d="M287.37,62.25h-1.23V56.42l-1.85,5.83h-.63l-1.86-5.83v5.83h-1V55.58h1.88l1.4,4.29,1.37-4.29h1.89Z"/>
<path fill="#fff" transform="translate(-2.07 -1.59)" d="m290 62.25h-1.2v-6.67h1.2z"/>
<path fill="#fff" transform="translate(-2.07 -1.59)" d="M296.43,62.25h-1.17L292.73,58l-.19-.32-.18-.31v4.88h-1V55.58h1.33l2.33,3.93.42.72V55.58h.95Z"/>
<path fill="#fff" transform="translate(-2.07 -1.59)" d="m299 62.25h-1.2v-6.67h1.2z"/>
<path fill="#fff" transform="translate(-2.07 -1.59)" d="M299.85,60.64l1.17-.25q.21,1,1.61,1a1.64,1.64,0,0,0,1-.25.76.76,0,0,0,.34-.63.89.89,0,0,0-.16-.51,1.13,1.13,0,0,0-.67-.36l-1.27-.33a3.12,3.12,0,0,1-1-.39,1.52,1.52,0,0,1-.5-.61,1.93,1.93,0,0,1-.19-.84,1.76,1.76,0,0,1,.66-1.43,2.61,2.61,0,0,1,1.7-.54,3.1,3.1,0,0,1,1.54.38,1.7,1.7,0,0,1,.86,1.06l-1.14.28a1.15,1.15,0,0,0-1.23-.76,1.36,1.36,0,0,0-.86.23.73.73,0,0,0-.29.6q0,.57.93.8l1.13.28a2.32,2.32,0,0,1,1.38.76,1.91,1.91,0,0,1,.35,1.12,1.84,1.84,0,0,1-.74,1.55,3.08,3.08,0,0,1-1.92.56,3.51,3.51,0,0,1-1.74-.42A2,2,0,0,1,299.85,60.64Z"/>
<path fill="#fff" transform="translate(-2.07 -1.59)" d="m308.65 62.25h-1.29v-5.63h-1.77v-1h4.83v1h-1.77z"/>
<path fill="#fff" transform="translate(-2.07 -1.59)" d="M316.35,62.25h-1.27l-1-2.74h-1.69v2.74h-1.2V55.58H314a2.49,2.49,0,0,1,1.77.54,1.87,1.87,0,0,1,.57,1.41,1.76,1.76,0,0,1-1.2,1.77Zm-4-3.7h1.49a1.45,1.45,0,0,0,1-.27.94.94,0,0,0,.32-.75.9.9,0,0,0-.31-.71,1.3,1.3,0,0,0-.87-.27h-1.59Z"/>
<path fill="#fff" transform="translate(-2.07 -1.59)" d="M322.91,62.25h-1.28l-.53-1.59h-2.56L318,62.25h-1l2.21-6.67h1.48Zm-2.14-2.55-1-3-1,3Z"/>
<path fill="#fff" transform="translate(-2.07 -1.59)" d="m325.5 62.25h-1.29v-5.63h-1.77v-1h4.83v1h-1.77z"/>
<path fill="#fff" transform="translate(-2.07 -1.59)" d="M329.21,62.25H328V55.58h1.2Z"/>
<path fill="#fff" transform="translate(-2.07 -1.59)" d="M333.11,62.35a2.43,2.43,0,0,1-2.07-1,4,4,0,0,1-.74-2.46,3.76,3.76,0,0,1,.79-2.43,2.53,2.53,0,0,1,2.08-1,2.45,2.45,0,0,1,2.05,1,3.89,3.89,0,0,1,.75,2.45,3.78,3.78,0,0,1-.78,2.49A2.56,2.56,0,0,1,333.11,62.35Zm0-1a1.38,1.38,0,0,0,1.1-.54,3.12,3.12,0,0,0,.45-1.95,3.65,3.65,0,0,0-.37-1.8,1.23,1.23,0,0,0-1.15-.65q-1.54,0-1.54,2.49a3.47,3.47,0,0,0,.39,1.83A1.26,1.26,0,0,0,333.12,61.39Z"/>
<path fill="#fff" transform="translate(-2.07 -1.59)" d="M342.09,62.25h-1.17L338.4,58l-.19-.32-.18-.31v4.88h-1V55.58h1.33l2.33,3.93.42.72V55.58h.95Z"/>
</g>
</svg>