<!-- <svg id="Layer_1" data-name="Layer 1" xmlns="http://www.w3.org/2000/svg" viewBox="0 0 239.86 79.96"><defs><style>.cls-1{fill:#0085ca;}.cls-2{fill:#fff;}.cls-3{fill:#003087;}</style></defs><g id="Main"><path id="Water" class="cls-1" d="M75.81,22.22c-5.7,8.62-15.16,20.58-26.13,24.6l-1.4.58a3.36,3.36,0,0,0,.82.24l.48,0h.82c2.78-.11,6.85-1.28,7.63,1.56-9.25.4-12.66,2.68-15.88,4.17-5,2.78-11.28,5.2-15.4,1.33,3.3-.44,9.4-2.44,11.55-4.39C20.8,50.09,13,39.21,7.6,33.25c-2-2.25-4-4.2-6-4.36a40,40,0,1,0,74.25-6.67Z"/><path id="Bird" class="cls-2" d="M7.6,33.25c5.44,6,13.2,16.84,30.7,17.08-2.15,2-8.25,4-11.55,4.39,4.12,3.87,10.43,1.45,15.4-1.33,3.22-1.49,6.63-3.77,15.88-4.17-.78-2.84-4.85-1.67-7.63-1.56h-.82l-.48,0a3.36,3.36,0,0,1-.82-.24l1.4-.58c11-4,20.43-16,26.13-24.6a39.88,39.88,0,0,0-4.07-6.53C61.45,17.56,58.16,32.63,52.27,40.1c-7.75,10.85-15.19,8.48-23,1.21C21.49,34.21,15.66,21.2,7.39,16.82A39.71,39.71,0,0,0,1.56,28.89C3.63,29.05,5.64,31,7.6,33.25Z"/><path id="Sky" class="cls-3" d="M29.28,41.31c7.8,7.27,15.24,9.64,23-1.21,5.89-7.47,9.18-22.54,19.47-24.41A40,40,0,0,0,7.39,16.82C15.66,21.2,21.49,34.21,29.28,41.31Z"/><g id="Wordmark"><path class="cls-3" d="M124.27,62h8.89V26.48c0-4.73-4.45-8.46-10.36-8.46H104.51V62h8.9V26.48h8.14c1.73,0,2.72,1.23,2.72,3.22h0Z"/><path class="cls-3" d="M175.64,62V26.48c0-5.48,5.93-8.47,8.9-8.47h10.88c4.43,0,8.88,3,8.88,8.47V62h-8.88V45.39H184.54V62ZM195.42,29.7a3.16,3.16,0,0,0-3.23-3.22H187.5a3.24,3.24,0,0,0-3,3.22v7.21h10.88Z"/><path class="cls-3" d="M211.22,62V26.48c0-5.48,5.92-8.47,8.89-8.47H231c4.43,0,8.87,3,8.87,8.47V62H231V45.39H220.11V62ZM231,29.7a3.15,3.15,0,0,0-3.22-3.22h-4.71a3.24,3.24,0,0,0-2.95,3.22v7.21H231Z"/><path class="cls-3" d="M159.74,18H148.87c-3,0-8.9,2.23-8.9,8.47V53.81c0,4.22,5.45,8.2,8.9,8.2h10.87c4,0,8.9-4.73,8.9-8.2V26.45C168.64,21.23,164.2,18,159.74,18Zm0,32.87a2.9,2.9,0,0,1-2.9,2.91h-5.06a2.91,2.91,0,0,1-2.91-2.91V29.14a2.91,2.91,0,0,1,2.91-2.91h5.06a2.91,2.91,0,0,1,2.9,2.91Z"/></g></g></svg> -->

<svg id="Layer_1" data-name="Layer 1" xmlns="http://www.w3.org/2000/svg" viewBox="0 0 239.86 79.96"><g id="Main"><path id="Water" fill="#0085ca" d="M75.81,22.22c-5.7,8.62-15.16,20.58-26.13,24.6l-1.4.58a3.36,3.36,0,0,0,.82.24l.48,0h.82c2.78-.11,6.85-1.28,7.63,1.56-9.25.4-12.66,2.68-15.88,4.17-5,2.78-11.28,5.2-15.4,1.33,3.3-.44,9.4-2.44,11.55-4.39C20.8,50.09,13,39.21,7.6,33.25c-2-2.25-4-4.2-6-4.36a40,40,0,1,0,74.25-6.67Z"/><path id="Bird" fill="#fff" d="M7.6,33.25c5.44,6,13.2,16.84,30.7,17.08-2.15,2-8.25,4-11.55,4.39,4.12,3.87,10.43,1.45,15.4-1.33,3.22-1.49,6.63-3.77,15.88-4.17-.78-2.84-4.85-1.67-7.63-1.56h-.82l-.48,0a3.36,3.36,0,0,1-.82-.24l1.4-.58c11-4,20.43-16,26.13-24.6a39.88,39.88,0,0,0-4.07-6.53C61.45,17.56,58.16,32.63,52.27,40.1c-7.75,10.85-15.19,8.48-23,1.21C21.49,34.21,15.66,21.2,7.39,16.82A39.71,39.71,0,0,0,1.56,28.89C3.63,29.05,5.64,31,7.6,33.25Z"/><path id="Sky" fill="#003087" d="M29.28,41.31c7.8,7.27,15.24,9.64,23-1.21,5.89-7.47,9.18-22.54,19.47-24.41A40,40,0,0,0,7.39,16.82C15.66,21.2,21.49,34.21,29.28,41.31Z"/><g id="Wordmark"><path fill="#003087" d="M124.27,62h8.89V26.48c0-4.73-4.45-8.46-10.36-8.46H104.51V62h8.9V26.48h8.14c1.73,0,2.72,1.23,2.72,3.22h0Z"/><path fill="#003087" d="M175.64,62V26.48c0-5.48,5.93-8.47,8.9-8.47h10.88c4.43,0,8.88,3,8.88,8.47V62h-8.88V45.39H184.54V62ZM195.42,29.7a3.16,3.16,0,0,0-3.23-3.22H187.5a3.24,3.24,0,0,0-3,3.22v7.21h10.88Z"/><path fill="#003087" d="M211.22,62V26.48c0-5.48,5.92-8.47,8.89-8.47H231c4.43,0,8.87,3,8.87,8.47V62H231V45.39H220.11V62ZM231,29.7a3.15,3.15,0,0,0-3.22-3.22h-4.71a3.24,3.24,0,0,0-2.95,3.22v7.21H231Z"/><path fill="#003087" d="M159.74,18H148.87c-3,0-8.9,2.23-8.9,8.47V53.81c0,4.22,5.45,8.2,8.9,8.2h10.87c4,0,8.9-4.73,8.9-8.2V26.45C168.64,21.23,164.2,18,159.74,18Zm0,32.87a2.9,2.9,0,0,1-2.9,2.91h-5.06a2.91,2.91,0,0,1-2.91-2.91V29.14a2.91,2.91,0,0,1,2.91-2.91h5.06a2.91,2.91,0,0,1,2.9,2.91Z"/></g></g></svg>